<svg width="114" height="82" viewBox="0 0 114 82" fill="none" xmlns="http://www.w3.org/2000/svg">
<rect y="7" width="114" height="39" rx="10" fill="#0066FF"/>
<rect x="16" y="43" width="82" height="35" rx="10" fill="#00D816"/>
<path d="M46.451 65.696C46.659 65.696 46.819 65.8 46.931 66.008C47.059 66.2 47.123 66.448 47.123 66.752C47.123 67.12 47.067 67.408 46.955 67.616C46.843 67.824 46.667 68.008 46.427 68.168C45.483 68.792 43.979 69.816 41.915 71.24C41.291 74.552 40.483 77.16 39.491 79.064C38.499 80.968 37.243 81.92 35.723 81.92C34.907 81.92 34.243 81.664 33.731 81.152C33.219 80.656 32.963 80 32.963 79.184C32.963 78.432 33.131 77.672 33.467 76.904C33.803 76.136 34.427 75.248 35.339 74.24C36.267 73.232 37.571 72.08 39.251 70.784L39.323 70.328C38.059 70.856 36.819 71.12 35.603 71.12C33.811 71.12 32.235 70.776 30.875 70.088C29.515 69.384 28.459 68.392 27.707 67.112C26.955 65.832 26.579 64.344 26.579 62.648C26.579 60.28 27.027 58.192 27.923 56.384C28.819 54.56 30.051 53.152 31.619 52.16C33.203 51.152 34.971 50.648 36.923 50.648C38.795 50.648 40.195 51.088 41.123 51.968C42.067 52.832 42.539 53.984 42.539 55.424C42.539 56.368 42.363 57.128 42.011 57.704C41.675 58.264 41.187 58.544 40.547 58.544C40.115 58.544 39.763 58.44 39.491 58.232C39.235 58.024 39.107 57.736 39.107 57.368C39.107 57.208 39.139 56.936 39.203 56.552C39.299 56.104 39.347 55.752 39.347 55.496C39.347 54.824 39.139 54.304 38.723 53.936C38.323 53.568 37.643 53.384 36.683 53.384C35.515 53.384 34.427 53.72 33.419 54.392C32.427 55.064 31.627 56.072 31.019 57.416C30.411 58.744 30.107 60.344 30.107 62.216C30.107 64.136 30.627 65.624 31.667 66.68C32.723 67.72 34.243 68.24 36.227 68.24C37.331 68.24 38.483 67.992 39.683 67.496L40.019 64.568H37.571C37.123 64.568 36.779 64.464 36.539 64.256C36.299 64.032 36.179 63.672 36.179 63.176C36.179 62.728 36.299 62.376 36.539 62.12C36.779 61.864 37.099 61.736 37.499 61.736H41.987C42.339 61.736 42.627 61.856 42.851 62.096C43.091 62.32 43.187 62.648 43.139 63.08C43.091 63.592 42.931 64.752 42.659 66.56L42.395 68.384C43.675 67.424 44.843 66.592 45.899 65.888C46.107 65.76 46.291 65.696 46.451 65.696ZM35.987 79.592C36.403 79.592 36.859 79.12 37.355 78.176C37.851 77.232 38.315 75.712 38.747 73.616C37.531 74.656 36.651 75.592 36.107 76.424C35.579 77.272 35.315 78.016 35.315 78.656C35.315 79.28 35.539 79.592 35.987 79.592ZM47.8383 71.12C47.1183 71.12 46.5263 70.792 46.0623 70.136C45.6143 69.464 45.3903 68.632 45.3903 67.64C45.3903 66.44 45.4703 65.344 45.6303 64.352C45.7903 63.344 46.0543 62.28 46.4223 61.16C46.5823 60.68 46.8063 60.336 47.0943 60.128C47.3823 59.92 47.8383 59.816 48.4623 59.816C48.8143 59.816 49.0543 59.872 49.1823 59.984C49.3263 60.096 49.3983 60.264 49.3983 60.488C49.3983 60.616 49.3103 61.048 49.1343 61.784C48.9743 62.376 48.8463 62.912 48.7503 63.392C48.4303 65.072 48.2703 66.192 48.2703 66.752C48.2703 67.088 48.3103 67.328 48.3903 67.472C48.4703 67.6 48.5983 67.664 48.7743 67.664C49.0143 67.664 49.3103 67.424 49.6623 66.944C50.0303 66.464 50.4143 65.736 50.8143 64.76C51.2303 63.784 51.6303 62.584 52.0143 61.16C52.1423 60.68 52.3343 60.336 52.5903 60.128C52.8623 59.92 53.2623 59.816 53.7903 59.816C54.1583 59.816 54.4143 59.864 54.5583 59.96C54.7023 60.04 54.7743 60.2 54.7743 60.44C54.7743 60.84 54.5743 61.936 54.1743 63.728C53.7263 65.776 53.5023 67.04 53.5023 67.52C53.5023 67.824 53.5663 68.064 53.6943 68.24C53.8223 68.4 53.9903 68.48 54.1983 68.48C54.5183 68.48 54.8943 68.288 55.3263 67.904C55.7743 67.504 56.3663 66.864 57.1023 65.984C57.2943 65.76 57.5103 65.648 57.7503 65.648C57.9583 65.648 58.1183 65.744 58.2303 65.936C58.3583 66.128 58.4223 66.392 58.4223 66.728C58.4223 67.368 58.2703 67.864 57.9663 68.216C57.2783 69.064 56.5343 69.76 55.7343 70.304C54.9503 70.848 54.0543 71.12 53.0463 71.12C52.2783 71.12 51.7103 70.824 51.3423 70.232C50.9903 69.64 50.8143 68.808 50.8143 67.736C50.5423 68.824 50.1343 69.664 49.5903 70.256C49.0463 70.832 48.4623 71.12 47.8383 71.12ZM48.9423 58.232C48.4303 58.232 48.0303 58.096 47.7423 57.824C47.4543 57.536 47.3103 57.096 47.3103 56.504C47.3103 55.864 47.4783 55.368 47.8143 55.016C48.1663 54.648 48.6303 54.464 49.2063 54.464C49.7183 54.464 50.1183 54.608 50.4063 54.896C50.6943 55.168 50.8383 55.6 50.8383 56.192C50.8383 56.832 50.6623 57.336 50.3103 57.704C49.9743 58.056 49.5183 58.232 48.9423 58.232ZM53.9343 58.232C53.4223 58.232 53.0223 58.096 52.7343 57.824C52.4463 57.536 52.3023 57.096 52.3023 56.504C52.3023 55.864 52.4703 55.368 52.8063 55.016C53.1583 54.648 53.6223 54.464 54.1983 54.464C54.7103 54.464 55.1103 54.608 55.3983 54.896C55.6863 55.168 55.8303 55.6 55.8303 56.192C55.8303 56.832 55.6543 57.336 55.3023 57.704C54.9663 58.056 54.5103 58.232 53.9343 58.232ZM58.1802 71.12C57.5722 71.12 57.1402 70.8 56.8842 70.16C56.6442 69.52 56.5242 68.496 56.5242 67.088C56.5242 65.008 56.8202 63.032 57.4122 61.16C57.5562 60.696 57.7882 60.36 58.1082 60.152C58.4442 59.928 58.9082 59.816 59.5002 59.816C59.8202 59.816 60.0442 59.856 60.1722 59.936C60.3002 60.016 60.3642 60.168 60.3642 60.392C60.3642 60.648 60.2442 61.224 60.0042 62.12C59.8442 62.76 59.7162 63.32 59.6202 63.8C59.5242 64.28 59.4442 64.872 59.3802 65.576C59.9082 64.2 60.5002 63.08 61.1562 62.216C61.8122 61.352 62.4522 60.736 63.0762 60.368C63.7162 60 64.3002 59.816 64.8282 59.816C65.8682 59.816 66.3882 60.336 66.3882 61.376C66.3882 61.584 66.3162 62.088 66.1722 62.888C66.0442 63.528 65.9802 63.928 65.9802 64.088C65.9802 64.648 66.1802 64.928 66.5802 64.928C67.0282 64.928 67.6042 64.576 68.3082 63.872C68.5162 63.664 68.7322 63.56 68.9562 63.56C69.1642 63.56 69.3242 63.656 69.4362 63.848C69.5642 64.024 69.6282 64.264 69.6282 64.568C69.6282 65.16 69.4682 65.624 69.1482 65.96C68.7002 66.424 68.1722 66.824 67.5642 67.16C66.9722 67.48 66.3402 67.64 65.6682 67.64C64.8202 67.64 64.1722 67.424 63.7242 66.992C63.2922 66.56 63.0762 65.976 63.0762 65.24C63.0762 65 63.1002 64.76 63.1482 64.52C63.1802 64.2 63.1962 63.984 63.1962 63.872C63.1962 63.616 63.1082 63.488 62.9322 63.488C62.6922 63.488 62.3722 63.76 61.9722 64.304C61.5882 64.832 61.2042 65.536 60.8202 66.416C60.4362 67.296 60.1242 68.224 59.8842 69.2C59.7082 69.952 59.5002 70.464 59.2602 70.736C59.0362 70.992 58.6762 71.12 58.1802 71.12ZM69.8461 71.12C69.1261 71.12 68.5341 70.792 68.0701 70.136C67.6221 69.464 67.3981 68.632 67.3981 67.64C67.3981 66.44 67.4781 65.344 67.6381 64.352C67.7981 63.344 68.0621 62.28 68.4301 61.16C68.5901 60.68 68.8141 60.336 69.1021 60.128C69.3901 59.92 69.8461 59.816 70.4701 59.816C70.8221 59.816 71.0621 59.872 71.1901 59.984C71.3341 60.096 71.4061 60.264 71.4061 60.488C71.4061 60.616 71.3181 61.048 71.1421 61.784C70.9821 62.376 70.8541 62.912 70.7581 63.392C70.4381 65.072 70.2781 66.192 70.2781 66.752C70.2781 67.088 70.3181 67.328 70.3981 67.472C70.4781 67.6 70.6061 67.664 70.7821 67.664C71.0221 67.664 71.3181 67.424 71.6701 66.944C72.0381 66.464 72.4221 65.736 72.8221 64.76C73.2381 63.784 73.6381 62.584 74.0221 61.16C74.1501 60.68 74.3421 60.336 74.5981 60.128C74.8701 59.92 75.2701 59.816 75.7981 59.816C76.1661 59.816 76.4221 59.864 76.5661 59.96C76.7101 60.04 76.7821 60.2 76.7821 60.44C76.7821 60.84 76.5821 61.936 76.1821 63.728C75.7341 65.776 75.5101 67.04 75.5101 67.52C75.5101 67.824 75.5741 68.064 75.7021 68.24C75.8301 68.4 75.9981 68.48 76.2061 68.48C76.5261 68.48 76.9021 68.288 77.3341 67.904C77.7821 67.504 78.3741 66.864 79.1101 65.984C79.3021 65.76 79.5181 65.648 79.7581 65.648C79.9661 65.648 80.1261 65.744 80.2381 65.936C80.3661 66.128 80.4301 66.392 80.4301 66.728C80.4301 67.368 80.2781 67.864 79.9741 68.216C79.2861 69.064 78.5421 69.76 77.7421 70.304C76.9581 70.848 76.0621 71.12 75.0541 71.12C74.2861 71.12 73.7181 70.824 73.3501 70.232C72.9981 69.64 72.8221 68.808 72.8221 67.736C72.5501 68.824 72.1421 69.664 71.5981 70.256C71.0541 70.832 70.4701 71.12 69.8461 71.12ZM70.9501 58.232C70.4381 58.232 70.0381 58.096 69.7501 57.824C69.4621 57.536 69.3181 57.096 69.3181 56.504C69.3181 55.864 69.4861 55.368 69.8221 55.016C70.1741 54.648 70.6381 54.464 71.2141 54.464C71.7261 54.464 72.1261 54.608 72.4141 54.896C72.7021 55.168 72.8461 55.6 72.8461 56.192C72.8461 56.832 72.6701 57.336 72.3181 57.704C71.9821 58.056 71.5261 58.232 70.9501 58.232ZM75.9421 58.232C75.4301 58.232 75.0301 58.096 74.7421 57.824C74.4541 57.536 74.3101 57.096 74.3101 56.504C74.3101 55.864 74.4781 55.368 74.8141 55.016C75.1661 54.648 75.6301 54.464 76.2061 54.464C76.7181 54.464 77.1181 54.608 77.4061 54.896C77.6941 55.168 77.8381 55.6 77.8381 56.192C77.8381 56.832 77.6621 57.336 77.3101 57.704C76.9741 58.056 76.5181 58.232 75.9421 58.232ZM80.188 71.12C79.58 71.12 79.148 70.8 78.892 70.16C78.652 69.52 78.532 68.496 78.532 67.088C78.532 65.008 78.828 63.032 79.42 61.16C79.564 60.696 79.796 60.36 80.116 60.152C80.452 59.928 80.916 59.816 81.508 59.816C81.828 59.816 82.052 59.856 82.18 59.936C82.308 60.016 82.372 60.168 82.372 60.392C82.372 60.648 82.252 61.224 82.012 62.12C81.852 62.76 81.724 63.32 81.628 63.8C81.532 64.28 81.452 64.872 81.388 65.576C81.916 64.2 82.508 63.08 83.164 62.216C83.82 61.352 84.46 60.736 85.084 60.368C85.724 60 86.308 59.816 86.836 59.816C87.348 59.816 87.732 59.952 87.988 60.224C88.26 60.48 88.396 60.864 88.396 61.376C88.396 61.792 88.308 62.576 88.132 63.728C87.972 64.704 87.844 65.632 87.748 66.512C87.652 67.376 87.604 68.344 87.604 69.416C87.604 70.024 87.476 70.464 87.22 70.736C86.98 70.992 86.58 71.12 86.02 71.12C85.492 71.12 85.108 70.984 84.868 70.712C84.628 70.44 84.508 70.032 84.508 69.488C84.508 68.848 84.62 67.792 84.844 66.32C85.036 65.04 85.132 64.224 85.132 63.872C85.132 63.616 85.044 63.488 84.868 63.488C84.66 63.488 84.364 63.76 83.98 64.304C83.612 64.832 83.228 65.536 82.828 66.416C82.444 67.296 82.132 68.224 81.892 69.2C81.716 69.952 81.508 70.464 81.268 70.736C81.044 70.992 80.684 71.12 80.188 71.12Z" fill="white"/>
<path d="M31.9575 39.24C29.2975 39.24 27.1675 38.74 25.5675 37.74C23.9675 36.72 23.1675 35.17 23.1675 33.09C23.1675 31.99 23.3575 31.15 23.7375 30.57C24.1175 29.99 24.6775 29.7 25.4175 29.7C25.9575 29.7 26.3975 29.84 26.7375 30.12C27.0775 30.4 27.2475 30.76 27.2475 31.2C27.2475 31.6 27.2175 31.95 27.1575 32.25C27.1575 32.33 27.1375 32.47 27.0975 32.67C27.0775 32.87 27.0675 33.08 27.0675 33.3C27.0675 34.2 27.5175 34.87 28.4175 35.31C29.3375 35.75 30.6175 35.97 32.2575 35.97C33.9575 35.97 35.2875 35.67 36.2475 35.07C37.2075 34.45 37.6875 33.59 37.6875 32.49C37.6875 31.81 37.4675 31.23 37.0275 30.75C36.5875 30.25 36.0375 29.84 35.3775 29.52C34.7175 29.18 33.7875 28.77 32.5875 28.29C31.0475 27.69 29.7875 27.12 28.8075 26.58C27.8475 26.04 27.0175 25.31 26.3175 24.39C25.6375 23.45 25.2975 22.29 25.2975 20.91C25.2975 19.47 25.6775 18.19 26.4375 17.07C27.2175 15.95 28.3275 15.08 29.7675 14.46C31.2275 13.84 32.9375 13.53 34.8975 13.53C36.3575 13.53 37.6975 13.75 38.9175 14.19C40.1375 14.61 41.1075 15.26 41.8275 16.14C42.5675 17.02 42.9375 18.1 42.9375 19.38C42.9375 20.64 42.7475 21.59 42.3675 22.23C41.9875 22.87 41.4275 23.19 40.6875 23.19C40.1675 23.19 39.7275 23.03 39.3675 22.71C39.0275 22.39 38.8575 22.01 38.8575 21.57C38.8575 21.19 38.8875 20.84 38.9475 20.52C39.0075 19.92 39.0375 19.54 39.0375 19.38C39.0375 18.54 38.6275 17.9 37.8075 17.46C36.9875 17.02 35.9675 16.8 34.7475 16.8C33.0275 16.8 31.7075 17.12 30.7875 17.76C29.8875 18.38 29.4375 19.26 29.4375 20.4C29.4375 21.16 29.6675 21.81 30.1275 22.35C30.6075 22.89 31.1975 23.34 31.8975 23.7C32.5975 24.06 33.5775 24.49 34.8375 24.99C36.3575 25.61 37.5775 26.17 38.4975 26.67C39.4175 27.17 40.1975 27.85 40.8375 28.71C41.4975 29.57 41.8275 30.63 41.8275 31.89C41.8275 34.25 40.9275 36.07 39.1275 37.35C37.3475 38.61 34.9575 39.24 31.9575 39.24ZM48.1718 23.04C47.3318 23.04 46.7018 22.85 46.2818 22.47C45.8618 22.07 45.6518 21.52 45.6518 20.82C45.6518 20.12 45.9218 19.54 46.4618 19.08C47.0218 18.6 47.7118 18.36 48.5318 18.36C49.2718 18.36 49.8718 18.54 50.3318 18.9C50.7918 19.26 51.0218 19.77 51.0218 20.43C51.0218 21.23 50.7618 21.87 50.2418 22.35C49.7218 22.81 49.0318 23.04 48.1718 23.04ZM47.9318 39.15C46.6318 39.15 45.6818 38.69 45.0818 37.77C44.5018 36.85 44.2118 35.63 44.2118 34.11C44.2118 33.21 44.3218 32.06 44.5418 30.66C44.7818 29.24 45.0818 27.92 45.4418 26.7C45.6218 26.06 45.8618 25.62 46.1618 25.38C46.4618 25.14 46.9418 25.02 47.6018 25.02C48.6218 25.02 49.1318 25.36 49.1318 26.04C49.1318 26.54 48.9418 27.7 48.5618 29.52C48.0818 31.72 47.8418 33.21 47.8418 33.99C47.8418 34.59 47.9218 35.05 48.0818 35.37C48.2418 35.69 48.5118 35.85 48.8918 35.85C49.2518 35.85 49.7018 35.6 50.2418 35.1C50.7818 34.6 51.5018 33.81 52.4018 32.73C52.6418 32.45 52.9118 32.31 53.2118 32.31C53.4718 32.31 53.6718 32.43 53.8118 32.67C53.9718 32.91 54.0518 33.24 54.0518 33.66C54.0518 34.46 53.8618 35.08 53.4818 35.52C51.5018 37.94 49.6518 39.15 47.9318 39.15ZM66.7675 29.88C66.8275 29.86 66.9275 29.85 67.0675 29.85C67.3675 29.85 67.5975 29.95 67.7575 30.15C67.9175 30.35 67.9975 30.62 67.9975 30.96C67.9975 31.58 67.8775 32.07 67.6375 32.43C67.3975 32.77 67.0375 33.02 66.5575 33.18C65.6375 33.48 64.6575 33.63 63.6175 33.63C62.7375 33.63 61.9075 33.51 61.1275 33.27C60.5475 34.21 59.9075 35.18 59.2075 36.18C58.4075 37.32 57.7175 38.1 57.1375 38.52C56.5575 38.94 55.8975 39.15 55.1575 39.15C54.3375 39.15 53.6875 38.83 53.2075 38.19C52.7475 37.55 52.4575 36.54 52.3375 35.16C52.0975 32.36 51.9775 29.91 51.9775 27.81V26.76C51.9975 26.1 52.1775 25.64 52.5175 25.38C52.8575 25.12 53.3675 24.99 54.0475 24.99C54.5675 24.99 54.9475 25.11 55.1875 25.35C55.4475 25.57 55.5775 25.95 55.5775 26.49C55.5775 28.79 55.7175 31.78 55.9975 35.46C57.1975 33.68 58.0975 32.26 58.6975 31.2C58.3975 30.62 58.2475 29.93 58.2475 29.13C58.2475 28.45 58.3975 27.79 58.6975 27.15C58.9975 26.51 59.4075 25.99 59.9275 25.59C60.4475 25.19 61.0375 24.99 61.6975 24.99C62.2775 24.99 62.7475 25.2 63.1075 25.62C63.4675 26.02 63.6475 26.61 63.6475 27.39C63.6475 28.29 63.4075 29.32 62.9275 30.48C63.6875 30.44 64.6975 30.29 65.9575 30.03L66.7675 29.88ZM69.0841 39.15C67.8441 39.15 66.8541 38.7 66.1141 37.8C65.3741 36.9 65.0041 35.72 65.0041 34.26C65.0041 32.66 65.3741 31.15 66.1141 29.73C66.8541 28.29 67.8341 27.14 69.0541 26.28C70.2941 25.4 71.6041 24.96 72.9841 24.96C73.4241 24.96 73.7141 25.05 73.8541 25.23C74.0141 25.39 74.1441 25.69 74.2441 26.13C74.6641 26.05 75.1041 26.01 75.5641 26.01C76.5441 26.01 77.0341 26.36 77.0341 27.06C77.0341 27.48 76.8841 28.48 76.5841 30.06C76.1241 32.36 75.8941 33.96 75.8941 34.86C75.8941 35.16 75.9641 35.4 76.1041 35.58C76.2641 35.76 76.4641 35.85 76.7041 35.85C77.0841 35.85 77.5441 35.61 78.0841 35.13C78.6241 34.63 79.3541 33.83 80.2741 32.73C80.5141 32.45 80.7841 32.31 81.0841 32.31C81.3441 32.31 81.5441 32.43 81.6841 32.67C81.8441 32.91 81.9241 33.24 81.9241 33.66C81.9241 34.46 81.7341 35.08 81.3541 35.52C80.5341 36.54 79.6641 37.4 78.7441 38.1C77.8241 38.8 76.9341 39.15 76.0741 39.15C75.4141 39.15 74.8041 38.93 74.2441 38.49C73.7041 38.03 73.2941 37.41 73.0141 36.63C71.9741 38.31 70.6641 39.15 69.0841 39.15ZM70.1641 36.12C70.6041 36.12 71.0241 35.86 71.4241 35.34C71.8241 34.82 72.1141 34.13 72.2941 33.27L73.4041 27.75C72.5641 27.77 71.7841 28.09 71.0641 28.71C70.3641 29.31 69.8041 30.11 69.3841 31.11C68.9641 32.11 68.7541 33.17 68.7541 34.29C68.7541 34.91 68.8741 35.37 69.1141 35.67C69.3741 35.97 69.7241 36.12 70.1641 36.12ZM85.0659 39.81C84.0259 39.81 83.2259 39.57 82.6659 39.09C82.1259 38.61 81.8559 38.07 81.8559 37.47C81.8559 36.95 82.0459 36.5 82.4259 36.12C82.8059 35.74 83.3659 35.55 84.1059 35.55C84.3659 35.55 84.6659 35.58 85.0059 35.64C85.3659 35.68 85.6359 35.71 85.8159 35.73C85.7959 35.21 85.6759 34.72 85.4559 34.26C85.2559 33.8 84.9959 33.36 84.6759 32.94C84.3559 32.5 84.0559 32.12 83.7759 31.8C83.1559 32.98 82.5359 33.96 81.9159 34.74C81.3159 35.52 80.6559 36.26 79.9359 36.96C79.5759 37.32 79.1959 37.5 78.7959 37.5C78.4759 37.5 78.2159 37.39 78.0159 37.17C77.8159 36.93 77.7159 36.64 77.7159 36.3C77.7159 35.9 77.8559 35.53 78.1359 35.19L78.5259 34.71C79.6259 33.35 80.4559 32.23 81.0159 31.35C81.3759 30.77 81.7359 30.08 82.0959 29.28C82.4759 28.48 82.9659 27.39 83.5659 26.01C83.9459 25.13 84.7359 24.69 85.9359 24.69C86.4959 24.69 86.8859 24.74 87.1059 24.84C87.3259 24.94 87.4359 25.1 87.4359 25.32C87.4359 25.44 87.3959 25.63 87.3159 25.89C87.2359 26.15 87.1259 26.41 86.9859 26.67C86.6259 27.39 86.4459 28 86.4459 28.5C86.4459 28.8 86.5459 29.13 86.7459 29.49C86.9659 29.85 87.2959 30.3 87.7359 30.84C88.3759 31.68 88.8559 32.4 89.1759 33C89.5159 33.58 89.6859 34.22 89.6859 34.92C89.6859 35.76 89.4859 36.56 89.0859 37.32C88.7059 38.06 88.1659 38.66 87.4659 39.12C86.7659 39.58 85.9659 39.81 85.0659 39.81Z" fill="white"/>
</svg>
